<svg width="174" height="39" viewBox="0 0 174 39" fill="none" xmlns="http://www.w3.org/2000/svg">
<path d="M16.0429 26.8063C13.8665 25.998 11.628 25.8736 9.57599 26.4333C8.14581 26.8064 6.77781 27.5525 5.53417 28.4853L4.66361 29.2314L4.41489 29.4802L4.97452 29.9776C5.0367 29.9776 5.03671 30.0398 5.09889 30.102C5.22325 30.2264 5.34763 30.2885 5.53417 30.4129L5.90725 30.6616L6.28034 30.3507C6.34252 30.2885 6.46689 30.1642 6.59125 30.102C7.71052 29.1693 8.95416 28.5474 10.26 28.2365C11.9389 27.8013 13.7422 27.8634 15.5454 28.5474C17.0378 29.1071 20.0847 29.7911 23.7534 28.2365L23.8778 28.1743L24.0643 27.9878C24.0643 27.9256 24.1265 27.9256 24.1887 27.8634C24.4996 27.4903 24.8105 27.1173 25.0593 26.682L26.3029 24.7543L24.3131 25.8736C21.3905 27.4903 18.7167 27.8013 16.0429 26.8063Z" fill="#55B02E"/>
<path d="M7.52398 20.0907C9.20289 19.6554 11.0062 19.7176 12.8094 20.4016C14.7993 21.1478 19.8982 22.2049 25.6189 17.0438L26.5516 16.1111L26.6138 16.0489L26.8625 15.8002L26.7382 15.4893C26.676 15.2405 26.5516 14.9296 26.4272 14.6187L26.1163 13.7482L25.4945 14.37C25.4323 14.4944 25.308 14.5565 25.1836 14.6809C22.4476 17.4791 18.2192 20.3395 13.3691 18.5984C11.1927 17.79 8.95416 17.6656 6.90216 18.2253C4.91234 18.7849 3.17125 19.842 1.55452 21.3344V21.2722L0.621792 22.2671C0.621792 22.3293 0.559621 22.3293 0.497439 22.3915L0.310883 22.578L0.373068 22.8267C0.43525 23.1376 0.55961 23.4485 0.621792 23.7594L0.994886 24.7544L1.6167 23.946C1.67889 23.8216 1.80325 23.7595 1.86543 23.6351C3.17125 22.4536 4.97452 20.7747 7.52398 20.0907Z" fill="#55B02E"/>
<path d="M1.49235 18.9714C2.92253 17.4791 4.53925 16.5463 6.28034 16.0489C7.95925 15.6136 9.76252 15.6758 11.5658 16.3598C17.1622 18.4118 22.0123 15.054 24.1265 13.2507L24.9349 12.4424L25.2458 12.1936L24.9971 11.8205C24.8105 11.634 24.6862 11.3853 24.4996 11.1365L24.1265 10.6391L23.6912 11.0743C23.6291 11.1365 23.5047 11.2609 23.4425 11.3231C20.8309 13.8103 16.7891 16.3598 12.1876 14.6187C10.0112 13.8104 7.7727 13.686 5.7207 14.2456C4.41489 14.6187 3.17125 15.2405 1.92761 16.0489L0.621788 17.106C0.497424 17.2304 0.435242 17.2925 0.310879 17.4169L0.186526 17.5413V17.7278C0.124345 18.1631 0.124337 18.5984 0.0621551 18.9714L-3.05176e-05 20.526L1.05707 19.4067C1.18143 19.2823 1.3058 19.0958 1.49235 18.9714Z" fill="#55B02E"/>
<path d="M17.8462 31.0347L17.7218 31.4078L17.8462 31.0347C17.6596 30.9725 17.5353 30.9103 17.3487 30.8482C15.1724 30.0398 12.9338 29.9155 10.8818 30.4751C10.4465 30.5995 10.0113 30.7238 9.576 30.9103L8.08362 31.5944L7.71054 31.7809L8.95418 32.2162C9.32727 32.3405 9.70035 32.4649 10.0734 32.5893L10.26 32.6515L10.4465 32.5893C10.6331 32.5271 10.8196 32.4027 11.0062 32.4027C11.1305 32.4027 11.2549 32.3405 11.3793 32.2784C12.8716 31.9053 14.4883 31.9053 16.2294 32.4649C16.416 32.5271 16.5404 32.5893 16.7269 32.6515L17.0378 32.7758L17.2244 32.7136C17.6596 32.5893 18.1571 32.4649 18.5302 32.2784L20.2713 31.6565L18.468 31.2213C18.2814 31.1591 18.0327 31.0969 17.8462 31.0347Z" fill="#55B02E"/>
<path d="M27.36 18.1631L26.4273 19.0958C26.3029 19.2202 26.1786 19.3445 26.0542 19.4689C23.5047 21.894 19.4007 24.5056 14.7993 22.7645C12.6229 21.9562 10.3844 21.8318 8.33237 22.3915C6.40473 22.9511 4.66363 23.946 3.10908 25.4384L2.30073 26.3089L2.052 26.6198L2.30073 26.9929C2.48727 27.2416 2.61164 27.4282 2.73601 27.6769L3.10908 28.2365L3.54436 27.6769C3.60654 27.6147 3.7309 27.4904 3.79309 27.4282C5.28545 25.8114 6.90218 24.8165 8.76763 24.3191C10.4465 23.8838 12.2498 23.946 14.0531 24.63C15.6076 25.1896 17.2244 25.3762 18.8411 25.1896C21.7015 24.8787 24.5618 23.262 26.676 21.4587C26.8004 21.3344 26.9247 21.2722 27.0491 21.1478L27.2356 20.9613V20.7747C27.2356 20.4016 27.2978 19.9664 27.2978 19.5933L27.36 18.1631Z" fill="#55B02E"/>
<path d="M3.73088 12.4424L3.54434 12.0693L3.73088 12.4424C4.10397 12.2558 4.53926 12.1315 4.91235 12.0071C6.59126 11.5718 8.39453 11.634 10.1978 12.318C11.3793 12.7533 12.5607 12.9398 13.8665 12.9398C16.4782 12.9398 19.0898 12.0071 21.5149 10.2038L22.4476 9.45764L22.7585 9.20892L22.1989 8.77364C22.0123 8.58709 21.7636 8.40055 21.5149 8.27619L21.1418 8.02747L20.8309 8.27619C20.7065 8.33837 20.6443 8.46273 20.52 8.52491C17.2243 11.0122 13.9287 11.6962 10.8196 10.5147C8.58108 9.70637 6.34252 9.51983 4.10397 10.2038C3.91743 10.266 3.73088 10.3282 3.48215 10.3904L3.3578 10.4526L3.17125 10.6391C3.17125 10.7013 3.10908 10.7013 3.04689 10.7635C2.79817 11.1366 2.48725 11.4475 2.23852 11.8206L1.05707 13.6238L2.98471 12.6289C3.29562 12.6289 3.54433 12.5046 3.73088 12.4424Z" fill="#55B02E"/>
<path d="M8.82981 8.21399L9.01634 8.27617C9.82471 8.58708 11.0684 8.89799 12.6229 8.89799C14.2396 8.89799 15.7942 8.5249 17.3487 7.90308L19.2763 6.97035L17.9705 6.53509C17.5975 6.41073 17.2243 6.28636 16.7891 6.22418H16.6025L16.416 6.28635C16.2295 6.34853 16.0429 6.47291 15.8563 6.53509C13.9909 7.21909 12.1254 7.34345 10.3222 6.846C10.1356 6.78382 9.94908 6.72163 9.76253 6.65944L9.576 6.59726L9.38944 6.65944C9.01635 6.78381 8.64327 6.90818 8.27017 7.09472L6.83998 7.71654L8.33236 8.1518C8.45672 8.08962 8.64326 8.15181 8.82981 8.21399Z" fill="#55B02E"/>
<path d="M39.8039 30V10.26H52.824V13.088H43.4159V18.688H52.18V21.516H43.4159V30H39.8039ZM55.5474 30V15.86H59.0474V30H55.5474ZM55.3514 13.2V9.78398H59.2434V13.2H55.3514ZM62.8482 30V19.388C62.8482 18.8093 62.8295 18.2213 62.7922 17.624C62.7548 17.0267 62.6988 16.4387 62.6242 15.86H66.0122L66.2922 18.66H65.9562C66.4042 17.6707 67.0668 16.9147 67.9442 16.392C68.8215 15.8507 69.8388 15.58 70.9962 15.58C72.6575 15.58 73.9082 16.0467 74.7482 16.98C75.5882 17.9133 76.0082 19.3693 76.0082 21.348V30H72.5082V21.516C72.5082 20.3773 72.2842 19.5653 71.8362 19.08C71.4068 18.576 70.7535 18.324 69.8762 18.324C68.7935 18.324 67.9348 18.66 67.3002 19.332C66.6655 20.004 66.3482 20.9 66.3482 22.02V30H62.8482ZM77.8153 30L86.7473 10.26H89.7713L98.8153 30H95.1473L92.7393 24.456L94.1953 25.436H82.3513L83.8633 24.456L81.4553 30H77.8153ZM88.2313 14.124L84.2833 23.476L83.5553 22.608H92.9633L92.3753 23.476L88.3433 14.124H88.2313ZM100.719 30V9.39198H104.219V30H100.719ZM108.02 30V9.39198H111.52V30H108.02ZM115.041 36.356L114.229 33.584C115.106 33.3973 115.843 33.1827 116.441 32.94C117.038 32.6973 117.533 32.38 117.925 31.988C118.317 31.596 118.643 31.092 118.905 30.476L119.605 28.824L119.521 30.196L113.361 15.86H117.085L121.509 26.892H120.697L125.149 15.86H128.677L122.237 30.784C121.807 31.792 121.341 32.6227 120.837 33.276C120.333 33.948 119.791 34.48 119.213 34.872C118.634 35.2827 117.999 35.6 117.309 35.824C116.618 36.048 115.862 36.2253 115.041 36.356Z" fill="white"/>
</svg>
